<svg width="21" height="21" viewBox="0 0 21 21" fill="none" xmlns="http://www.w3.org/2000/svg">
<path fill-rule="evenodd" clip-rule="evenodd" d="M0.792892 2.20711C0.402369 1.81658 0.402369 1.18342 0.792892 0.792893C1.18342 0.402369 1.81658 0.402369 2.20711 0.792893L10.3244 8.91021L18.4417 0.792893C18.8323 0.402369 19.4654 0.402369 19.856 0.792893C20.2465 1.18342 20.2465 1.81658 19.856 2.20711L11.7386 10.3244L19.8559 18.4417C20.2465 18.8322 20.2465 19.4654 19.8559 19.8559C19.4654 20.2465 18.8322 20.2465 18.4417 19.8559L10.3244 11.7386L2.20714 19.8559C1.81661 20.2465 1.18345 20.2465 0.792926 19.8559C0.402401 19.4654 0.402401 18.8322 0.792926 18.4417L8.91021 10.3244L0.792892 2.20711Z" fill="#D2A64B"/>
</svg>
