<svg width="21" height="22" viewBox="0 0 21 22" fill="none" xmlns="http://www.w3.org/2000/svg">
<path fill-rule="evenodd" clip-rule="evenodd" d="M0.43934 2.97671C-0.146447 2.39092 -0.146447 1.44117 0.43934 0.855386C1.02513 0.2696 1.97487 0.2696 2.56066 0.855386L10.3244 8.61915L18.0882 0.855386C18.674 0.2696 19.6237 0.2696 20.2095 0.855386C20.7953 1.44117 20.7953 2.39092 20.2095 2.97671L12.4457 10.7405L20.2095 18.5042C20.7953 19.09 20.7953 20.0397 20.2095 20.6255C19.6237 21.2113 18.6739 21.2113 18.0882 20.6255L10.3244 12.8618L2.56069 20.6255C1.97491 21.2113 1.02516 21.2113 0.439372 20.6255C-0.146414 20.0397 -0.146414 19.09 0.439372 18.5042L8.20311 10.7405L0.43934 2.97671Z" fill="#676767"/>
</svg>
